<svg width="26" height="27" viewBox="0 0 26 27" fill="none" xmlns="http://www.w3.org/2000/svg">
<g id="Add User">
<path id="Add User_2" fill-rule="evenodd" clip-rule="evenodd" d="M10.3466 0.715347C6.65972 0.715347 3.69914 3.76218 3.69914 7.55754C3.69914 11.352 6.66012 14.3997 10.3466 14.3997C14.034 14.3997 16.9941 11.3524 16.9941 7.55754C16.9941 3.76177 14.0344 0.715347 10.3466 0.715347ZM10.3466 2.64526C12.9989 2.64526 15.1191 4.82763 15.1191 7.55754C15.1191 10.2866 12.9984 12.4698 10.3466 12.4698C7.69565 12.4698 5.57414 10.2862 5.57414 7.55754C5.57414 4.82811 7.69519 2.64526 10.3466 2.64526ZM10.3467 16.7418C4.05923 16.7418 0.500488 17.9698 0.500488 21.4495C0.500488 24.933 4.07502 26.1842 10.3467 26.1842L11.1511 26.1771C16.9355 26.0731 20.193 24.804 20.193 21.4765C20.193 18.0687 16.7722 16.7972 10.7519 16.7435L10.3467 16.7418ZM10.3467 18.6717C15.5986 18.6717 18.318 19.6236 18.318 21.4765C18.318 23.3179 15.6052 24.2543 10.3467 24.2543C5.09491 24.2543 2.37549 23.3024 2.37549 21.4495C2.37549 19.6571 4.94219 18.7229 9.92584 18.6737L10.3467 18.6717ZM22.005 8.33105C22.4796 8.33105 22.8718 8.69407 22.9339 9.16507L22.9425 9.29601V10.9106H24.5626C25.0804 10.9106 25.5001 11.3426 25.5001 11.8755C25.5001 12.3641 25.1474 12.7678 24.6898 12.8317L24.5626 12.8405H22.9425V14.4553C22.9425 14.9883 22.5227 15.4203 22.005 15.4203C21.5303 15.4203 21.1381 15.0573 21.076 14.5863L21.0675 14.4553V12.8405H19.4501C18.9324 12.8405 18.5126 12.4085 18.5126 11.8755C18.5126 11.387 18.8653 10.9833 19.3229 10.9194L19.4501 10.9106H21.0675V9.29601C21.0675 8.76308 21.4872 8.33105 22.005 8.33105Z" fill="#333333"/>
</g>
</svg>
