<svg width="23" height="23" viewBox="0 0 23 23" fill="none" xmlns="http://www.w3.org/2000/svg">
<g id="Buy">
<path id="Buy_2" fill-rule="evenodd" clip-rule="evenodd" d="M1.23778 0.824876L1.12365 0.81294C0.708324 0.797757 0.335347 1.09147 0.262498 1.51237L0.250562 1.6265C0.235379 2.04183 0.529094 2.41481 0.949994 2.48766L2.64763 2.78127L3.67647 15.039L3.69776 15.2232C3.90476 16.6209 5.10699 17.6718 6.53889 17.6718H18.8149L18.9998 17.6659C20.3456 17.5799 21.4616 16.5621 21.658 15.2101L22.7257 7.83185L22.7441 7.66238C22.8424 6.31342 21.7737 5.14264 20.3978 5.14264H4.53875L4.27468 1.99069L4.25478 1.86598C4.17778 1.54162 3.9141 1.28809 3.57778 1.22988L1.23778 0.824876ZM6.4083 15.9772C5.85112 15.9162 5.40552 15.4687 5.35793 14.8982L4.68034 6.83014H20.3976L20.4968 6.83743C20.852 6.89024 21.1086 7.22242 21.0554 7.59025L19.9878 14.9679L19.961 15.0998C19.8256 15.6157 19.3582 15.9843 18.8147 15.9843H6.53873L6.4083 15.9772ZM4.64702 21.1585C4.64702 20.2179 5.4094 19.4541 6.35027 19.4541C7.29101 19.4541 8.05464 20.2177 8.05464 21.1585C8.05464 22.0993 7.29088 22.8617 6.35027 22.8617C5.40953 22.8617 4.64702 22.0992 4.64702 21.1585ZM17.305 21.1585C17.305 20.2177 18.0686 19.4541 19.0093 19.4541C19.9501 19.4541 20.7137 20.2177 20.7137 21.1585C20.7137 22.0993 19.95 22.8617 19.0093 22.8617C18.0687 22.8617 17.305 22.0993 17.305 21.1585ZM17.8546 10.1444C17.8546 9.6784 17.4768 9.30064 17.0108 9.30064H13.8912L13.7767 9.30834C13.3649 9.36421 13.0474 9.71723 13.0474 10.1444C13.0474 10.6104 13.4252 10.9881 13.8912 10.9881H17.0108L17.1253 10.9804C17.5371 10.9246 17.8546 10.5715 17.8546 10.1444Z" fill="#333333"/>
</g>
</svg>
