<svg width="26" height="27" viewBox="0 0 26 27" fill="none" xmlns="http://www.w3.org/2000/svg">
<g id="Search">
<path id="Search_2" fill-rule="evenodd" clip-rule="evenodd" d="M12.5144 0.439323C5.87904 0.439323 0.5 5.85363 0.5 12.5325C0.5 19.2114 5.87904 24.6257 12.5144 24.6257C15.3523 24.6257 17.9604 23.6353 20.0162 21.9792L23.9212 25.8996L24.0251 25.9897C24.3877 26.2597 24.9017 26.229 25.2297 25.8979C25.5906 25.5337 25.5898 24.944 25.228 24.5808L21.3689 20.7065C23.3312 18.5541 24.5289 15.6841 24.5289 12.5325C24.5289 5.85363 19.1498 0.439323 12.5144 0.439323ZM12.5144 2.302C18.1278 2.302 22.6783 6.88236 22.6783 12.5325C22.6783 18.1827 18.1278 22.763 12.5144 22.763C6.90108 22.763 2.35055 18.1827 2.35055 12.5325C2.35055 6.88236 6.90108 2.302 12.5144 2.302Z" fill="#333333"/>
</g>
</svg>
